
<global>
amp_veltrack=0
ampeg_release=0.35
</global>

<group>
group_label=PP
lpc_hicc1=42
lpc_locc1=0

<region>
hikey=a3
hivel=127
lokey=g#3
loop_end=288878
loop_mode=loop_continuous
loop_start=103842
loop_xfade=55510
lovel=0
lpc=QTsOQQqFt8ExL8hB/I8+wbK737/pf45Au4ULv5Yzqb+DLhE/DyuMPqVEdr+sGOk+qFWUP4Sp/78YVRFAoJkNwOpCOD/V1J4/7pN0v9nGRb+b1ME/UkLKvYsygr+fjSc/
lpc_rms=-50.49
offset=4076
pitch_keycenter=a3
sample=Violin1Solo_tremolo_PP_A3.opus
</region>

<region>
hikey=a4
hivel=127
lokey=g#4
loop_end=291896
loop_mode=loop_continuous
loop_start=96704
loop_xfade=51695
lovel=0
lpc=Vi8yQTZg68Gqfw5C6jjDwUc2FEGJcI7AoTOnQBU0dsB6E74/5n+JvtJ+hL6wNtE/1n0QwBiaYr4HH7ZAfQHbwNvYYEDcuSO/k5JIPwGg+L9PbU48L+wIQEfRI8Do3qg/
lpc_rms=-46.85
offset=6695
pitch_keycenter=a4
sample=Violin1Solo_tremolo_PP_A4.opus
</region>

<region>
hikey=a5
hivel=127
lokey=g#5
loop_end=275832
loop_mode=loop_continuous
loop_start=92807
loop_xfade=49612
lovel=0
lpc=YfLoQFMdQcHZEkNBzNIGwagZy0DphXnALNc/QBsNub8gEig/SZLTP8kfIMCi+X1AoGhlwK5GjUBhDwLAHf4VPyWs6T/ZOSTATMRrQOrOTsC3u0dAN8HGv7/vrz8Oypo9
lpc_rms=-46.06
offset=1118
pitch_keycenter=a5
sample=Violin1Solo_tremolo_PP_A5.opus
</region>

<region>
hikey=a6
hivel=127
lokey=g#6
loop_end=275698
loop_mode=loop_continuous
loop_start=109660
loop_xfade=58620
lovel=0
lpc=WYgPQf2sEMFKUaBA+Qc7v2NZor+RpR8/tyyVP5Y4DcD0UVM+qeCiP4UXlj48gF+/13kfQEihrMA3JrK/tVC9QGPwr8CeDWZA+6JSvvuBoL1xqcO+6+gjQOmWh7/OEo29
lpc_rms=-46.85
offset=485
pitch_keycenter=a6
sample=Violin1Solo_tremolo_PP_A6.opus
</region>

<region>
hikey=b3
hivel=127
lokey=a#3
loop_end=268745
loop_mode=loop_continuous
loop_start=96605
loop_xfade=51642
lovel=0
lpc=HM5eQVuJEMIHih1CeIWbwThUFr6kQURAOKG/P3JSdL/YTJq/GwZLvkRGtz9ar3m/cnEhP6GOp7+wUjRAzE84wKLyrj4/YgBA98x4v71yjL556jq+U6D5P18pG8AgO54/
lpc_rms=-48.91
offset=11979
pitch_keycenter=b3
sample=Violin1Solo_tremolo_PP_B3.opus
</region>

<region>
hikey=b4
hivel=127
lokey=a#4
loop_end=279510
loop_mode=loop_continuous
loop_start=95286
loop_xfade=50937
lovel=0
lpc=9XEBQdA5ncGvHbJBrddswfTV1EC9JY7ARRWZQIxOd8DP/jxAAlbcv0pEqb73Yrc/y+fFvxCDHb9SO3VAHrBYwHR8VT/oZ8w+v8aPPmAI/b6RhIe9B9oBP//Ao741pJo+
lpc_rms=-48.56
offset=9042
pitch_keycenter=b4
sample=Violin1Solo_tremolo_PP_B4.opus
</region>

<region>
hikey=b5
hivel=127
lokey=a#5
loop_end=282058
loop_mode=loop_continuous
loop_start=95954
loop_xfade=51293
lovel=0
lpc=UKMOQcIYTcGWKS5Bv+K0wDS0zj+/iG6+jo2AP8EHCcAm4xFAdEXMvtWThr+6PApAuWcNwBGYBUD1LqC/vpnjPoPeeD+KQSjA8/xlQJS6LcBmrI8/QoyRvUzonj+xSFnA
lpc_rms=-48.29
offset=2133
pitch_keycenter=b5
sample=Violin1Solo_tremolo_PP_B5.opus
</region>

<region>
hikey=E7
hivel=127
lokey=a#6
loop_end=279944
loop_mode=loop_continuous
loop_start=171612
loop_xfade=91738
lovel=0
lpc=TGf6QLvBDsFgo5ZAAUr9vwX8vj9kaNC+cGHUvgcms70G+oW9Vg9vQC4PIsD9qOw/vE39wL3O9EDRJibApHCGPzWLU79LZH0+qimpP5iRE78vw4s/YF1OwNcEwT+Tsvq9
lpc_rms=-49.16
pitch_keycenter=B6
sample=Violin1Solo_tremolo_PP_B6.opus
</region>

<region>
hikey=c#4
hivel=127
lokey=c4
loop_end=273218
loop_mode=loop_continuous
loop_start=98212
loop_xfade=52501
lovel=0
lpc=S9M/Qc5/58G0ptxBkeQRwYqMtcCgkqZARzMFPttPjL/+9j+/yTwPQFkVV8C/hPA/ktQBQNx1acBLA0tA7eZCv4JYH8CRwDdAgLAoP4G+JsA8pHA/ibfDP6ZSy79kWF8+
lpc_rms=-48.02
offset=7299
pitch_keycenter=c#4
sample=Violin1Solo_tremolo_PP_C#4.opus
</region>

<region>
hikey=c#5
hivel=127
lokey=c5
loop_end=277918
loop_mode=loop_continuous
loop_start=117385
loop_xfade=62750
lovel=0
lpc=jgyoQDKhRsF0s2lB3zMxwb/C5ECOj7DADtlxQPy98b8FcaE/8qB0v6EwSL4zSoU/JVgFvvPtn7+a+BpAASkKwKD1hD/AN5W+G4TLPXFC5T4iw6u/b63ZP0ngaL8o9W8+
lpc_rms=-50.14
offset=512
pitch_keycenter=c#5
sample=Violin1Solo_tremolo_PP_C#5.opus
</region>

<region>
hikey=c#6
hivel=127
lokey=c6
loop_end=284161
loop_mode=loop_continuous
loop_start=111182
loop_xfade=59434
lovel=0
lpc=Kxn9QGTmNsFMgAtBsf+RwAh8QUC1vALAyjCsP+PUsb/8bg4/uPv9P2PtGMB81ghA0J3nvw8MtD83U62/f31AQG88JcBW8bs+wltiPzaQor9uETRA1P/BwNlxM0Awqi2+
lpc_rms=-49.31
offset=5023
pitch_keycenter=c#6
sample=Violin1Solo_tremolo_PP_C#6.opus
</region>

<region>
hikey=d#4
hivel=127
lokey=d4
loop_end=276634
loop_mode=loop_continuous
loop_start=108966
loop_xfade=58250
lovel=0
lpc=PAv2QB25m8Hx4atBJxE+wZfXKUAUjPG+2r29P93N5L8LlHQ/1bYPP/YZIMAI5x1AWOIGvxdBYb95r4M/MGHBvxjE+z8QCLa/kCSjvRubvj9bxxq/irOfv0zE8j+WfD2/
lpc_rms=-52.72
offset=7536
pitch_keycenter=d#4
sample=Violin1Solo_tremolo_PP_D#4.opus
</region>

<region>
hikey=d#5
hivel=127
lokey=d5
loop_end=278193
loop_mode=loop_continuous
loop_start=115672
loop_xfade=61834
lovel=0
lpc=ygMDQXkHjcFS1Y9BBvozwWWLrkCMWX3A069HQKzLNL8SWSY+KcZSvqTzYT2S+v8+g6JPvk7zZL8buUdABI09wKMDiz9gUUe//WGoP3t9078PFVI/fK8Pv1L/nD/fu5K+
lpc_rms=-48.62
offset=3897
pitch_keycenter=d#5
sample=Violin1Solo_tremolo_PP_D#5.opus
</region>

<region>
hikey=d#6
hivel=127
lokey=d6
loop_end=276064
loop_mode=loop_continuous
loop_start=92235
loop_xfade=49306
lovel=0
lpc=3kiaQQ6e4sF6VJhBSNqswKChxj8geIzAx3BpQKceD8AJGGFA97qavwY2JL8iON8/+kqFv/xWQEAD+APApZXdP6IuP79ISeY+MjIcQDZXgsGmGX5Br1sswDgfuMDGb7RA
lpc_rms=-42.47
offset=2886
pitch_keycenter=d#6
sample=Violin1Solo_tremolo_PP_D#6.opus
</region>

<region>
hikey=f4
hivel=127
lokey=e4
loop_end=291567
loop_mode=loop_continuous
loop_start=121764
loop_xfade=65091
lovel=0
lpc=kIS3QISTUMFhY1FBPIHPwFNPez+RPUK/41+jP9pQf75AIzC/B7UOPxjQHL/MfUo/edEuvjy0Nb9Fz+I/kqUtwPfaQ0AQgQTAb6WrPk0D5T5fmUW9665Zvt8GLT2kCfA9
lpc_rms=-54.90
offset=12631
pitch_keycenter=f4
sample=Violin1Solo_tremolo_PP_F4.opus
</region>

<region>
hikey=f5
hivel=127
lokey=e5
loop_end=292112
loop_mode=loop_continuous
loop_start=114489
loop_xfade=61202
lovel=0
lpc=2nWeQP0uIcGZSCRB+pLDwJQqc0A9V3LAlnJHQNsFxr9c5Cc/B9l7Prqgn7/zTfo/lcKnv5vCl76u4gJAeoC7vxIxJT6NfKA9Wp9XPyLPSr7v4CC++w0dv2Zauj/J9gS/
lpc_rms=-51.40
offset=11354
pitch_keycenter=f5
sample=Violin1Solo_tremolo_PP_F5.opus
</region>

<region>
hikey=f6
hivel=127
lokey=e6
loop_end=277855
loop_mode=loop_continuous
loop_start=94349
loop_xfade=50436
lovel=0
lpc=2106QQtMfsEgKhhBZotOwH7jHkBqMkHABXe+P/Dzgj5U2kS/QvjLP8Tqir/pNL0/YZEVv8Jejz/nEsC+mRf/Pui9kT/Kbi/BRhRGQQzUl8DTuCY//b2Dv+yRAkDMSNi+
lpc_rms=-46.50
offset=1227
pitch_keycenter=f6
sample=Violin1Solo_tremolo_PP_F6.opus
</region>

<region>
hivel=127
key=g3
loop_end=281867
loop_mode=loop_continuous
loop_start=108990
loop_xfade=58262
lovel=0
lpc=YxQFQb8ArsGassZBLsJSwWPNUz67cAZAvN2oP6ii5r/ozhE+LGczPmx2Yb8jcg9AnXIMwLMizT5anQJAkI09wGgJvj8EesQ+9+gtv6yPjTwPtcA+iWpFPqE5cL58/7o9
lpc_rms=-52.44
offset=6901
sample=Violin1Solo_tremolo_PP_G3.opus
</region>

<region>
hikey=g4
hivel=127
lokey=f#4
loop_end=288236
loop_mode=loop_continuous
loop_start=115258
loop_xfade=61614
lovel=0
lpc=iFQRQUk3u8HvL9hBA5OFwWfxlkB+GPK//PphQPTMHcCuWRy+vxbHP1Szmr/tcXA++HipPz8iRsBT7ppAFp6IwJ1k4T9FGGK/Yt1MP6SFZL5Na8S/2ldLQMM7NMBopqc/
lpc_rms=-49.72
offset=9463
pitch_keycenter=g4
sample=Violin1Solo_tremolo_PP_G4.opus
</region>

<region>
hikey=g5
hivel=127
lokey=f#5
loop_end=285884
loop_mode=loop_continuous
loop_start=95891
loop_xfade=51260
lovel=0
lpc=kkSqQF0mBMHh+dBA4h45wP/exj8D1LC/ZaTZP7KHlr9estA/dXEGv7f/Gr7TMK0+l8wKv3Emcz/zsge/tIcPQDnV5b9wGDs/B2N1vT598jz2MdU+b3yTPQ6Qpjy9JBI/
lpc_rms=-48.80
offset=6579
pitch_keycenter=g5
sample=Violin1Solo_tremolo_PP_G5.opus
</region>

<region>
hikey=g6
hivel=127
lokey=f#6
loop_end=295550
loop_mode=loop_continuous
loop_start=121688
loop_xfade=65050
lovel=0
lpc=BDCeQHKc58A03qRAjQw3wHxS6z/3T+O/hnh2PwfonL47zK0+NaUwPyjtFr87fBk/ihKivmnE7z7JEWa9S5JewEFfZ0C462q/dz89vg9mPj7mqPw+e8vDPWmnp73LDaS+
lpc_rms=-57.21
offset=14413
pitch_keycenter=g6
sample=Violin1Solo_tremolo_PP_G6.opus
</region>
</group>

<group>
group_label=MF
lpc_hicc1=84
lpc_locc1=43

<region>
hikey=a3
hivel=127
lokey=g#3
loop_end=262372
loop_mode=loop_continuous
loop_start=94314
loop_xfade=50417
lovel=0
lpc=71oQQZARssHWrbJBDnj9wDxnmcDLsHNAZypGQHhOqsDv8AhAZoFGQBxD5MChruxA0nZcwA8/xr99I5JAM+6DwOVoyD9/v0M/MxSdvkCq0L8bNNU/4N7tPuUeA8DIBp0/
lpc_rms=-32.03
offset=778
pitch_keycenter=a3
sample=Violin1Solo_tremolo_MF_A3.opus
</region>

<region>
hikey=a4
hivel=127
lokey=g#4
loop_end=260673
loop_mode=loop_continuous
loop_start=93703
loop_xfade=50091
lovel=0
lpc=oi9UQUYqEMKsFClCt3rRwb1R7EBBiifA8OfXQP3ALsGadj9Bs0fcwM3e7L8p0vZADxLFwEczRz8xhnlA59uiwEJGSUDDbBO+ZpkdwCvuI0D8JKy/oQd0P2CZVL+w3OQ+
lpc_rms=-30.57
pitch_keycenter=a4
sample=Violin1Solo_tremolo_MF_A4.opus
</region>

<region>
hikey=a5
hivel=127
lokey=g#5
loop_end=262342
loop_mode=loop_continuous
loop_start=94303
loop_xfade=50411
lovel=0
lpc=+SzvQAj4C8E9m9lAsWy6v45nxD8WvJ4+zTwiP21voz1Impc/EgrkPwkpg78mGqw/JdWbP95X3T2erbI/lF0CPwB8WT6L1yU/7aoSQPRTh79YNW8/N/53Py8/Uz6zgPo/
lpc_rms=-28.31
offset=250
pitch_keycenter=a5
sample=Violin1Solo_tremolo_MF_A5.opus
</region>

<region>
hikey=a6
hivel=127
lokey=g#6
loop_end=258578
loop_mode=loop_continuous
loop_start=92950
loop_xfade=49688
lovel=0
lpc=9/SbQanKVcHDTZVA7B7XQObD5cBgnvtAANJNwGjyIr6Yoay+vbRuP21s2T9Eule/Yx6WQDgqEsHapgLBjo1YQW+eFME2L78/nHVsQKOhvMBs4eVARJXPv0ruFEADgaq+
lpc_rms=-26.73
offset=991
pitch_keycenter=a6
sample=Violin1Solo_tremolo_MF_A6.opus
</region>

<region>
hikey=b3
hivel=127
lokey=a#3
loop_end=258651
loop_mode=loop_continuous
loop_start=92976
loop_xfade=49702
lovel=0
lpc=l5WBQS0YIsJmdhxCjn4vwf4pRsF07ipBD47TP0/TssDOqkg/wyjgQPnURsHQrh1Bjwzfv4vin8AJc/5AjeHJwORIAUB/15U/q8g8PFUmHMDrAxZAxenWPr7PE8Cwlqs/
lpc_rms=-28.18
offset=879
pitch_keycenter=b3
sample=Violin1Solo_tremolo_MF_B3.opus
</region>

<region>
hikey=b4
hivel=127
lokey=a#4
loop_end=262848
loop_mode=loop_continuous
loop_start=94485
loop_xfade=50508
lovel=0
lpc=pk1bQXk7DsJg1ylCctnnwQ7WNUEHwZjAQmvgQA69K8GI7z1BpfnIwLBoS8Cy7+JAzShUwH2FDsCSertASvPMwPhZjUDUrD6/7jcqwDKTMUADAIE+gwsrwDIJT0Cu1H2/
lpc_rms=-30.17
offset=509
pitch_keycenter=b4
sample=Violin1Solo_tremolo_MF_B4.opus
</region>

<region>
hikey=b5
hivel=127
lokey=a#5
loop_end=257596
loop_mode=loop_continuous
loop_start=92597
loop_xfade=49499
lovel=0
lpc=9nECQd63CsEg8MdAtzIPwHyqPD+cToQ+1SrUvNC5cz+Lhl2/SHmUP7HpgD4Cp42/6bUWQKV6wb86ZEw/9chWP81oVb93l5s/D7zAvvTcvD4aNOM+TilVvxbQU0C9uJzA
lpc_rms=-31.57
offset=680
pitch_keycenter=b5
sample=Violin1Solo_tremolo_MF_B5.opus
</region>

<region>
hikey=E7
hivel=127
lokey=a#6
loop_end=266716
loop_mode=loop_continuous
loop_start=140164
loop_xfade=74927
lovel=0
lpc=ak6hQXIgjcEMg5VAJu8JQIx1w77TMuG+OYI/QK5Zrb/1jqi/82EXQTsjfsDNiCdActCawYMBcUEyvR8/RPpcwCfY6j/JoQBAnlMewJo4FEByDCxAu4v2wIBURkAxzVg/
lpc_rms=-30.50
offset=1372
pitch_keycenter=B6
sample=Violin1Solo_tremolo_MF_B6.opus
</region>

<region>
hikey=c#4
hivel=127
lokey=c4
loop_end=256105
loop_mode=loop_continuous
loop_start=92061
loop_xfade=49213
lovel=0
lpc=yKuBQX6DLMJs5S9CYLZTwWubYMGquUJBk5RBQPRtAsEQNwtArvfjQK1SZMGjbk1Bx8YAwKyzAsHuZitBhNm9wNiXsb4kVR9A4niOP52fmMA3MiJACJsgQPPfhMBFS+E/
lpc_rms=-27.68
offset=732
pitch_keycenter=c#4
sample=Violin1Solo_tremolo_MF_C#4.opus
</region>

<region>
hikey=c#5
hivel=127
lokey=c5
loop_end=262656
loop_mode=loop_continuous
loop_start=94416
loop_xfade=50472
lovel=0
lpc=HB3RQKwNYsGUBWtBe9IlwfFB+0AD8fXAPB6gQCJNHMA75vw/bt8hv1nomb/vOh1A7M7uvy7Tij/dejk/H9wJwC0w+T+4+Pe/5cTTP/66b79EE1Y+rbAxP5VWCr+nltg+
lpc_rms=-33.88
offset=2173
pitch_keycenter=c#5
sample=Violin1Solo_tremolo_MF_C#5.opus
</region>

<region>
hikey=c#6
hivel=127
lokey=c6
loop_end=278279
loop_mode=loop_continuous
loop_start=109791
loop_xfade=58691
lovel=0
lpc=E7KPQZ0waMG85m1AU2T4vzoWBUAAw7i/RdBNQBBJ2r8JuAVAig9Fv9CvDkCCdX6/bFDxP0xEP79WPApAbtaLv7paBkDlzdK/lyKEQIWGf8CBkslAhNA5wTPCPcC1PgBB
lpc_rms=-29.52
offset=888
pitch_keycenter=c#6
sample=Violin1Solo_tremolo_MF_C#6.opus
</region>

<region>
hikey=d#4
hivel=127
lokey=d4
loop_end=254361
loop_mode=loop_continuous
loop_start=91434
loop_xfade=48878
lovel=0
lpc=absNQfoZtcHlsrxBZyYQwYjVjMDdv4BAJO0xQIvOcsAHWMG++mOPQFKkycDQxqlABoCqv6sQLsCWDo5ADEdCwIN2mj4Qgfg+yehCP7t8DMAxpa0/Mow+P1/Yjr95Qbg+
lpc_rms=-32.47
offset=775
pitch_keycenter=d#4
sample=Violin1Solo_tremolo_MF_D#4.opus
</region>

<region>
hikey=d#5
hivel=127
lokey=d5
loop_end=261330
loop_mode=loop_continuous
loop_start=93939
loop_xfade=50217
lovel=0
lpc=+FLfQAsfcMH3m2ZBBO4NwRUp/EChjgrB+zQAQd1+tsCViJJAmCBVwMGpB0CCUp6/VBOSPyiznL+s2SVAtIQfwJQgSz/q7W6/Y+o4QJose8DhsEpA/jgNwM710D/GHlS/
lpc_rms=-32.84
offset=627
pitch_keycenter=d#5
sample=Violin1Solo_tremolo_MF_D#5.opus
</region>

<region>
hikey=d#6
hivel=127
lokey=d6
loop_end=256810
loop_mode=loop_continuous
loop_start=92315
loop_xfade=49348
lovel=0
lpc=9omuQWS1p8FkK9dAV/vIP48mxr+NYeI/drIxv3QXIUDBQFW/uV0SQNxvgL4uYJM/CueJP3kDUz51BNY/JXjvvZad4j+KnlG/QTSSQI7Jo8FqrUhBueGBQLr7t8AV8lJA
lpc_rms=-28.44
offset=330
pitch_keycenter=d#6
sample=Violin1Solo_tremolo_MF_D#6.opus
</region>

<region>
hikey=f4
hivel=127
lokey=e4
loop_end=263889
loop_mode=loop_continuous
loop_start=94859
loop_xfade=50709
lovel=0
lpc=ZWsVQU1buMGxMMdB52JOwVafND4WG8o/S0FXQKDX5MCF98VA5NTVv/bLTcA9pI5AzUXvv3ASe7+rbgZA9M6Wv4OBNL+ZU8M/bvcqv6PC9j0LX16/9jsZQAIq6L8xxsQ+
lpc_rms=-33.72
offset=540
pitch_keycenter=f4
sample=Violin1Solo_tremolo_MF_F4.opus
</region>

<region>
hikey=f5
hivel=127
lokey=e5
loop_end=259605
loop_mode=loop_continuous
loop_start=93319
loop_xfade=49885
lovel=0
lpc=DiWlQPyjEMHHrwFBIelcwCdIoT/n66q/gIKrP0yIxr8xAgBArIkHv436jb/OSv4/+Ue/PVbhzr8wM/I/e/WlvAhP4L8ADhdAcInmvykdoz9mMZG+GqjiPAO79j78ft0+
lpc_rms=-33.98
offset=1150
pitch_keycenter=f5
sample=Violin1Solo_tremolo_MF_F5.opus
</region>

<region>
hikey=f6
hivel=127
lokey=e6
loop_end=270958
loop_mode=loop_continuous
loop_start=103581
loop_xfade=55371
lovel=0
lpc=a2dqQeveaMFfxwZBmjR3v/OpWL9ndA5ArvulvlrIUz5N0ii62ruxP21Abb/m7J4/Z7qkPQ0Rlz0VDIE/fSvQvhcQ7T9RK2HBPc4zQXUvZMBwftu/BPIfQDBNEcBCwHc/
lpc_rms=-33.50
offset=238
pitch_keycenter=f6
sample=Violin1Solo_tremolo_MF_F6.opus
</region>

<region>
hivel=127
key=g3
loop_end=257493
loop_mode=loop_continuous
loop_start=92560
loop_xfade=49479
lovel=0
lpc=Ni4jQYIHx8EybcNBejb9wBofwMDxXo5AY6lPQKmSp8BUaWQ/toeqQOfNFsHOXABBdE+Mv9uRrMD27fRAcX+VwJaKHb+5/PA/RlTrP+sOocAjlDJAzSPiP0H8QsDYiMk/
lpc_rms=-31.08
offset=2160
sample=Violin1Solo_tremolo_MF_G3.opus
</region>

<region>
hikey=g4
hivel=127
lokey=f#4
loop_end=256280
loop_mode=loop_continuous
loop_start=92124
loop_xfade=49246
lovel=0
lpc=tvJ+QfxVKMKnCDtC9CnDwdAMSz4uno1AJpuPQFSGMsHnyB9B/QIxwDK5ecCg+KpA0fk3wBU0oL8JH8RArg3jwNToGEBMVJY/CFE5v5lbkb7Pz5C/k6NzQAFgj8AXKR1A
lpc_rms=-28.48
offset=951
pitch_keycenter=g4
sample=Violin1Solo_tremolo_MF_G4.opus
</region>

<region>
hikey=g5
hivel=127
lokey=f#5
loop_end=258507
loop_mode=loop_continuous
loop_start=92925
loop_xfade=49674
lovel=0
lpc=jPuTQMIJ2sDBdrBA7vfjv+yxhj+Okou/MH+wP0mjtL9K2ss/Xtw1v0K+UT4TXQa/y52hP1WYkr/DuoM/3RxHPzuk6L5Q4hO+yeGYP8ZHYL9kmBI/0/wfP9UKhb82yRY/
lpc_rms=-31.43
offset=414
pitch_keycenter=g5
sample=Violin1Solo_tremolo_MF_G5.opus
</region>

<region>
hikey=g6
hivel=127
lokey=f#6
loop_end=255025
loop_mode=loop_continuous
loop_start=91673
loop_xfade=49005
lovel=0
lpc=mgg7QRycBMEBTwhALLcVQPlkdL9eh4E/rnSCPyONJT+AgmjAEtZOQGImyL+6YPw/++07vfC0Iz4SZDNA0HsxwaGDmUAwof8/2dsVwDm5tTya8N4/8kQOwEpycT+0ph5A
lpc_rms=-31.37
offset=1264
pitch_keycenter=g6
sample=Violin1Solo_tremolo_MF_G6.opus
</region>
</group>

<group>
group_label=FF
lpc_hicc1=127
lpc_locc1=85

<region>
hikey=a3
hivel=127
lokey=g#3
loop_end=266453
loop_mode=loop_continuous
loop_start=95781
loop_xfade=51201
lovel=0
lpc=CsjfQGRTkcE2LrRBbPqGwVCxAUFuVlnAdAkxQO1kVcCtu19AQjIdwCq0g71H8ghABy3Qv4qoor4bltI/HmP8vyTuxz9qKUy+SqbdvzSsPkD3E+6/w6qBvhP4bT935TS+
lpc_rms=-23.02
offset=5607
pitch_keycenter=a3
sample=Violin1Solo_tremolo_FF_A3.opus
</region>

<region>
hikey=a4
hivel=127
lokey=g#4
loop_end=262073
loop_mode=loop_continuous
loop_start=94206
loop_xfade=50360
lovel=0
lpc=dHQNQeOss8Hgks5BpkGCwbygm0DDJ+2/gB9gQN+8jcAy/CBAmw67P1ORVsCScCtAcq9Wv1KGE7+sGkBADPSSwPJae0A1vkXAzTwgQFHe579xvrk+gM7wPheQZr53mV4+
lpc_rms=-25.20
offset=712
pitch_keycenter=a4
sample=Violin1Solo_tremolo_FF_A4.opus
</region>

<region>
hikey=a5
hivel=127
lokey=g#5
loop_end=258972
loop_mode=loop_continuous
loop_start=93092
loop_xfade=49764
lovel=0
lpc=P5StQCD88MCnP9NAGFlbwJfqMEA187a/n+ZePylBg75ttl8/l7wOP3JGsL4igh0/osR6PwyVEb/JSl8/oYxRPzcZUr8P/5k/z4TTPkmCZb5xqAg+QvmJPsEUBj8skBA/
lpc_rms=-20.91
offset=619
pitch_keycenter=a5
sample=Violin1Solo_tremolo_FF_A5.opus
</region>

<region>
hikey=a6
hivel=127
lokey=g#6
loop_end=277170
loop_mode=loop_continuous
loop_start=111850
loop_xfade=59791
lovel=0
lpc=1xXSQOwO9MB++XJAHH22PoU3y7+tAhtABPWvv09ORT8pDPO+di31P92WGL8WoEo/Bz+RP8BLXsBbd4S+c7KZQDFlYcAS96E/CyCkP8jWCcAAGSVAYe5mv9uMbT57zZq+
lpc_rms=-24.05
offset=902
pitch_keycenter=a6
sample=Violin1Solo_tremolo_FF_A6.opus
</region>

<region>
hikey=b3
hivel=127
lokey=a#3
loop_end=258268
loop_mode=loop_continuous
loop_start=92838
loop_xfade=49629
lovel=0
lpc=8cAaQY1lwMGXNdtBtJaKwYCOnEA3z9y/CpJzQG+6ZsCoWBA+Zo9qQOEMoMDsAW5Ab/ECwEwvIL7cTCxA9HVJwNqRH0DiiOe/pX3PP4AlFr+TbxO/aBW3PgpWkD6diva9
lpc_rms=-20.90
offset=149
pitch_keycenter=b3
sample=Violin1Solo_tremolo_FF_B3.opus
</region>

<region>
hikey=b4
hivel=127
lokey=a#4
loop_end=258441
loop_mode=loop_continuous
loop_start=92901
loop_xfade=49662
lovel=0
lpc=y6fNQGflXMH9llhBbRXpwBMdL0BM0i3AoNVuQMJRg8AzME1AKiJWv+o6v768Yrq+tLWGPj4PCz7YNO4+NKYhv/3mFD+UBbK+41dOPk2NuT4JCdu+9+WpPCvgEby8k90+
lpc_rms=-24.59
offset=18
pitch_keycenter=b4
sample=Violin1Solo_tremolo_FF_B4.opus
</region>

<region>
hikey=b5
hivel=127
lokey=a#5
loop_end=257585
loop_mode=loop_continuous
loop_start=92593
loop_xfade=49497
lovel=0
lpc=gncBQRrLJ8ETGRJByuHAwN69ZkCZb92/lOlgP3HPVz4WKG2/d03pPzfjub/J9WU/vpYKv24c3D6C1H0+VMLbvc/fKD7dZLA8lOaKPjRbub57aVU/hknLv/xKTUDDuY/A
lpc_rms=-19.26
offset=680
pitch_keycenter=b5
sample=Violin1Solo_tremolo_FF_B5.opus
</region>

<region>
hikey=E7
hivel=127
lokey=a#6
loop_end=257056
loop_mode=loop_continuous
loop_start=92403
loop_xfade=49395
lovel=0
lpc=ALS6QLa6z8CrDJdAfJIMwIEidz80ZLs+hxlBv8FXKT9r5FY+PYhmP+igsT7wgI8/896kwOmDpUD/cRbAlz9AP9M7Ez9FfhK/4tduP+QIgT61o/W+ftqhPVYzDr9XJ5y+
lpc_rms=-24.27
offset=659
pitch_keycenter=B6
sample=Violin1Solo_tremolo_FF_B6.opus
</region>

<region>
hikey=c#4
hivel=127
lokey=c4
loop_end=252492
loop_mode=loop_continuous
loop_start=90762
loop_xfade=48519
lovel=0
lpc=h1g0Qcj26cErYwJC0YmUwVUygEB1uATA0QOnQC2Gj8AXJms/iihBQOuIxsCGEbpAZFHMvzJAGsAbaYNAcB5SwFNkF0D+dwfAmnAXQBhgAMDRvHk+4pKJPxOJlL9huvk+
lpc_rms=-19.67
offset=262
pitch_keycenter=c#4
sample=Violin1Solo_tremolo_FF_C#4.opus
</region>

<region>
hikey=c#5
hivel=127
lokey=c5
loop_end=262186
loop_mode=loop_continuous
loop_start=94247
loop_xfade=50381
lovel=0
lpc=RmzBQFuSTMEt1EdBRNH1wGmslEBM13jAL/EqQMRVCcCUQOY/S6XxPVicCb+sPpI+U7STv7jbkD8d0as/OeYgwAaDvT+q+2m/PocQPzdJJT6AVRg/Wxepv4XJLz8KxGw+
lpc_rms=-25.60
offset=590
pitch_keycenter=c#5
sample=Violin1Solo_tremolo_FF_C#5.opus
</region>

<region>
hikey=c#6
hivel=127
lokey=c6
loop_end=266351
loop_mode=loop_continuous
loop_start=95744
loop_xfade=51182
lovel=0
lpc=akXDQCeo58BvjYtAkCQkwEugrj9Dxsq+9gwyOwApOT/N0Uu/rEKCP7RPir6iNZo+WJ9UPdLhRz7P2jQ+PTWFPYyHl74RsEQ/R5KLvu7dgL4YCdg/bLiOwFxcrD//4Zc/
lpc_rms=-24.18
offset=398
pitch_keycenter=c#6
sample=Violin1Solo_tremolo_FF_C#6.opus
</region>

<region>
hikey=d#4
hivel=127
lokey=d4
loop_end=259211
loop_mode=loop_continuous
loop_start=93178
loop_xfade=49809
lovel=0
lpc=pljiQLkrkcH1bbJBYYyFwY/U+EBotRnAIUm0P8h83L91Fe0/FxWev/GVN7+AHAJAdSbyvsWavr//JQtASO0dwKmKEUBGL+q+2w4WwOUxc0C74/S/MI7jvKqWmD6Vdys8
lpc_rms=-23.96
offset=3654
pitch_keycenter=d#4
sample=Violin1Solo_tremolo_FF_D#4.opus
</region>

<region>
hikey=d#5
hivel=127
lokey=d5
loop_end=261267
loop_mode=loop_continuous
loop_start=93917
loop_xfade=50205
lovel=0
lpc=6G2MQD5jAcFuv9JAlnpKwFAxN0DFVZDAcK6dQCDAasApTSZAisSzv/E5KD8ljpK/j0m/PzaPEL+9A9k+v9z4vlJpsj4Z0AK9gTe6PsdAeb9wimY/0H1ivqWO8T4J/he+
lpc_rms=-22.94
offset=511
pitch_keycenter=d#5
sample=Violin1Solo_tremolo_FF_D#5.opus
</region>

<region>
hikey=d#6
hivel=127
lokey=d6
loop_end=263729
loop_mode=loop_continuous
loop_start=94802
loop_xfade=50678
lovel=0
lpc=jfBZQRXTlMGjqUdBTUqEwKNeCj/8Sz8+1FWfvrWHkD/IXs++HyiMP61kDT6eww++i+eVP4rn1r6MtIE/3ldDPU5HMj/GIHe/3+BVQH1hX8H4/ltBfheHwNArwr8QShlA
lpc_rms=-17.94
offset=585
pitch_keycenter=d#6
sample=Violin1Solo_tremolo_FF_D#6.opus
</region>

<region>
hikey=f4
hivel=127
lokey=e4
loop_end=263418
loop_mode=loop_continuous
loop_start=94690
loop_xfade=50618
lovel=0
lpc=go0EQUuao8HfbL1Bo1RzwUPAn0DSdhXAOCZIQHA5OMCgFIU/QihHP8Pi9b+X7wBApmoJwArPcD+1RAlAM/14wKkUT0CAeKa/FtpEPzSNZb/LV3M/3pOcvxYMlz93qqq+
lpc_rms=-25.16
offset=352
pitch_keycenter=f4
sample=Violin1Solo_tremolo_FF_F4.opus
</region>

<region>
hikey=f5
hivel=127
lokey=e5
loop_end=260371
loop_mode=loop_continuous
loop_start=93594
loop_xfade=50033
lovel=0
lpc=S9RtQIL0xsC2fqFAyYQUwDzVB0CaqlHA3C9HQMc/4L/kh1w/WHhsvm4bVbyx/Bc+pk9iP0Bcd78HrBA//rhpPQydrb4F/iM//XJuv6yEaj8Bd5K+g+b4Pk84r74omuk+
lpc_rms=-24.98
pitch_keycenter=f5
sample=Violin1Solo_tremolo_FF_F5.opus
</region>

<region>
hikey=f6
hivel=127
lokey=e6
loop_end=284894
loop_mode=loop_continuous
loop_start=109605
loop_xfade=58591
lovel=0
lpc=TNbNQGt38MDxuJFAVOUxvyB8Bb9GFlU/ccetvvbWET8ZsBC/ejq0P93Ybr+1Ylw/Ck4jPoJlsrvg1EI/ZfIXvxQCsj+CscbA97W+QOCwDsC8+n6+SsKQP48QNr+9bRM/
lpc_rms=-22.43
offset=2370
pitch_keycenter=f6
sample=Violin1Solo_tremolo_FF_F6.opus
</region>

<region>
hivel=127
key=g3
loop_end=253687
loop_mode=loop_continuous
loop_start=91192
loop_xfade=48748
lovel=0
lpc=9ZkJQbtCq8HQj8BBgDBowQRnMUA5ypA/jEWiPmrBar/YB58+9ibKPUEXs71zFhA/993Kv+sPsz4YMi1A+gxwwPGPJkDt0Le/YF3EP3eghr+PPi+/fjGuP4JEbL+sURs/
lpc_rms=-21.60
offset=198
sample=Violin1Solo_tremolo_FF_G3.opus
</region>

<region>
hikey=g4
hivel=127
lokey=f#4
loop_end=262327
loop_mode=loop_continuous
loop_start=94298
loop_xfade=50408
lovel=0
lpc=P8s6QTKG78FKVA1CCzq2wQisxUBOD6q/h7GAQMYIpsCTGxpA564eQO02msB6vYBAxPHyvwH91b46snpAuVbKwEAfrEDmw03AKe39P6x+GsBkSHw/BkrPP6C9HMAtCt8/
lpc_rms=-21.36
offset=215
pitch_keycenter=g4
sample=Violin1Solo_tremolo_FF_G4.opus
</region>

<region>
hikey=g5
hivel=127
lokey=f#5
loop_end=254264
loop_mode=loop_continuous
loop_start=91399
loop_xfade=48859
lovel=0
lpc=w88sQNcFesAR4mhATKYTwMw4zz9WJKS/J+TjP0cVj79n5iQ/Rj5NPqG80r4lM7w+mwiwPle0wL4qtQ4/JceLvuE/8j7UDl2+3Ir4PvnpPr5niIK+30tQP67JI7/0BkE/
lpc_rms=-22.68
offset=2414
pitch_keycenter=g5
sample=Violin1Solo_tremolo_FF_G5.opus
</region>

<region>
hikey=g6
hivel=127
lokey=f#6
loop_end=262640
loop_mode=loop_continuous
loop_start=94410
loop_xfade=50469
lovel=0
lpc=GD+QQAg9ksCHqSlAgILEPZVwg78T5Mk/60gWPVTi5r6SIyU9AXciPylhvL72Bhs/6+wsPyLWTr/dpfo/TQiGwFDYHkD/2N4+6oa0v7GYwD9nDFu/y2MzPh2VhT4PCSs/
lpc_rms=-24.35
offset=76
pitch_keycenter=g6
sample=Violin1Solo_tremolo_FF_G6.opus
</region>
</group>